<svg width="74" height="71" viewBox="0 0 74 71" fill="none" xmlns="http://www.w3.org/2000/svg">
<rect x="1" width="71" height="71" fill="#003F31"/>
<path d="M18.522 45L25.076 25.86H31.166L37.72 45H33.196L28.353 29.166H27.918L23.046 45H18.522ZM22.205 41.23V38.388H34.646V41.23H22.205ZM43.6451 45.406C42.7944 45.406 42.0404 45.2417 41.3831 44.913C40.7257 44.565 40.2134 44.072 39.8461 43.434C39.4787 42.796 39.2951 42.0033 39.2951 41.056C39.2951 40.2247 39.4497 39.5287 39.7591 38.968C40.0877 38.4073 40.5614 37.953 41.1801 37.605C41.7987 37.257 42.5624 36.967 43.4711 36.735C44.3797 36.503 45.4141 36.3 46.5741 36.126C47.1927 36.0293 47.6954 35.9423 48.0821 35.865C48.4881 35.7683 48.7877 35.6233 48.9811 35.43C49.1744 35.2173 49.2711 34.9177 49.2711 34.531C49.2711 33.9897 49.0777 33.5257 48.6911 33.139C48.3044 32.7523 47.6954 32.559 46.8641 32.559C46.3034 32.559 45.7814 32.6557 45.2981 32.849C44.8341 33.0423 44.4281 33.3323 44.0801 33.719C43.7514 34.1057 43.5097 34.5987 43.3551 35.198L39.6721 34.067C39.9041 33.2743 40.2327 32.588 40.6581 32.008C41.1027 31.428 41.6344 30.9447 42.2531 30.558C42.8717 30.152 43.5774 29.8523 44.3701 29.659C45.1627 29.4657 46.0231 29.369 46.9511 29.369C48.4397 29.369 49.6481 29.6107 50.5761 30.094C51.5234 30.558 52.2291 31.2927 52.6931 32.298C53.1571 33.284 53.3891 34.56 53.3891 36.126V38.736C53.3891 39.4127 53.3987 40.099 53.4181 40.795C53.4567 41.491 53.4954 42.1967 53.5341 42.912C53.5921 43.608 53.6501 44.304 53.7081 45H50.0251C49.9477 44.5167 49.8704 43.9657 49.7931 43.347C49.7351 42.709 49.6867 42.071 49.6481 41.433H49.1261C48.8554 42.1677 48.4687 42.8347 47.9661 43.434C47.4634 44.0333 46.8447 44.5167 46.1101 44.884C45.3947 45.232 44.5731 45.406 43.6451 45.406ZM45.4141 42.39C45.7814 42.39 46.1487 42.3223 46.5161 42.187C46.9027 42.0517 47.2701 41.868 47.6181 41.636C47.9854 41.3847 48.3141 41.0753 48.6041 40.708C48.9134 40.3407 49.1647 39.925 49.3581 39.461L49.3001 37.025L49.9671 37.17C49.6191 37.4213 49.2131 37.6243 48.7491 37.779C48.2851 37.9143 47.8017 38.0207 47.2991 38.098C46.8157 38.1753 46.3324 38.2623 45.8491 38.359C45.3657 38.4557 44.9307 38.5813 44.5441 38.736C44.1767 38.8907 43.8771 39.1033 43.6451 39.374C43.4324 39.6253 43.3261 39.983 43.3261 40.447C43.3261 41.0463 43.5194 41.52 43.9061 41.868C44.2927 42.216 44.7954 42.39 45.4141 42.39Z" fill="white"/>
<path d="M8.7 19.12L1.26 15.4V13.96L8.7 10.24V11.5L2.3 14.58V14.8L8.7 17.88V19.12Z" fill="white"/>
<path d="M64.8 61.12L72.24 57.4V55.96L64.8 52.24V53.5L71.2 56.58V56.8L64.8 59.88V61.12Z" fill="white"/>
<path d="M46.5 14.5H9" stroke="white"/>
<path d="M27 56.5H64.5" stroke="white"/>
</svg>
