<svg xmlns="http://www.w3.org/2000/svg" width="800" height="800" viewBox="0 0 256 256"><path d="M243.655 126.376c-.339-.763-8.511-18.892-26.827-37.208-16.957-16.96-46.133-37.176-88.828-37.176S56.129 72.208 39.172 89.168c-18.316 18.316-26.488 36.445-26.827 37.208a3.998 3.998 0 0 0 0 3.249c.339.762 8.512 18.886 26.827 37.199C56.129 183.78 85.306 203.992 128 203.992s71.871-20.212 88.828-37.168c18.315-18.313 26.488-36.437 26.827-37.2a3.998 3.998 0 0 0 0-3.248Zm-32.691 34.999c-23.074 22.97-50.987 34.617-82.964 34.617s-59.89-11.647-82.964-34.617A135.66 135.66 0 0 1 20.443 128a135.632 135.632 0 0 1 24.594-33.384C68.111 71.64 96.023 59.992 128 59.992s59.889 11.65 82.963 34.624A135.653 135.653 0 0 1 235.557 128a135.622 135.622 0 0 1-24.593 33.375ZM128 84a44 44 0 1 0 44 44 44.05 44.05 0 0 0-44-44Zm0 80a36 36 0 1 1 36-36 36.04 36.04 0 0 1-36 36Z" fill="currentColor"/></svg>